<svg xmlns="http://www.w3.org/2000/svg" width="1024" height="1024" viewBox="0 0 1024 1024">
<g>
<path d="M 649.50 987.17 C640.43,988.10 576.75,988.48 388.87,988.71 C144.87,989.01 140.20,988.98 137.87,987.10 L 135.50 985.18 L 135.50 928.34 C135.50,897.08 135.84,870.28 136.26,868.79 C136.67,867.31 138.60,864.88 140.53,863.41 L 144.04 860.73 L 385.77 860.31 C589.08,859.95 629.21,859.66 638.28,858.44 C644.22,857.65 651.01,857.00 653.38,857.00 C655.75,857.00 660.28,856.11 663.44,855.02 C666.61,853.93 672.65,852.39 676.86,851.59 C681.08,850.79 686.64,849.23 689.22,848.12 C691.81,847.01 695.62,845.80 697.71,845.43 C699.79,845.06 703.75,843.52 706.50,842.01 C709.25,840.49 712.80,838.95 714.38,838.57 C715.96,838.20 718.88,836.80 720.86,835.45 C722.84,834.10 724.92,832.99 725.48,832.98 C726.04,832.97 727.62,832.06 729.00,830.96 C730.38,829.86 734.52,826.92 738.20,824.43 C750.76,815.96 763.41,800.15 772.04,782.13 C774.85,776.28 777.95,769.92 778.93,768.00 C779.92,766.08 781.22,762.25 781.82,759.50 C782.42,756.75 783.81,750.45 784.90,745.50 C786.00,740.55 787.37,734.12 787.95,731.20 C789.27,724.56 789.29,683.89 787.98,678.50 C786.89,674.02 785.49,665.40 783.93,653.52 C782.83,645.15 779.95,633.65 778.09,630.18 C777.49,629.05 776.99,627.09 776.98,625.82 C776.96,622.25 767.41,602.22 762.85,596.19 C757.36,588.91 747.95,579.86 741.39,575.55 C738.43,573.60 733.60,570.42 730.68,568.50 C727.75,566.58 724.59,565.00 723.66,565.00 C722.73,565.00 719.58,563.65 716.65,562.00 C713.22,560.06 709.93,559.00 707.36,559.00 C705.17,559.00 700.48,557.83 696.94,556.39 C685.09,551.60 670.44,551.07 543.00,550.84 C480.02,550.72 365.27,550.77 288.00,550.94 C186.85,551.17 146.38,550.95 143.50,550.14 C140.81,549.39 138.76,547.94 137.25,545.70 L 135.00 542.38 L 135.00 295.75 C135.00,144.63 135.36,48.17 135.94,46.66 C136.51,45.15 138.16,43.79 140.19,43.14 C144.90,41.64 252.48,41.35 452.97,42.29 C550.32,42.75 623.14,43.48 625.47,44.02 C627.69,44.53 631.46,44.96 633.86,44.98 C636.25,44.99 640.83,45.68 644.03,46.51 C647.24,47.34 654.73,48.47 660.68,49.03 C675.99,50.47 680.73,51.31 696.00,55.31 C703.42,57.26 713.10,59.79 717.50,60.93 C725.72,63.08 745.16,69.90 750.50,72.52 C752.15,73.33 758.45,76.69 764.50,80.00 C770.55,83.30 777.34,86.89 779.58,87.97 C781.82,89.05 784.75,90.79 786.08,91.82 C787.41,92.86 789.70,94.34 791.17,95.10 C795.24,97.23 803.78,104.99 820.40,121.64 C835.20,136.48 842.12,144.36 848.60,153.79 C852.40,159.31 867.00,188.43 867.00,190.50 C867.00,191.27 868.16,194.97 869.57,198.70 C873.31,208.61 875.96,218.91 875.98,223.62 C875.99,225.89 876.61,229.49 877.35,231.62 C878.09,233.76 879.51,244.05 880.49,254.50 C882.20,272.60 882.20,274.22 880.56,288.83 C879.61,297.26 878.19,305.69 877.41,307.55 C876.64,309.41 875.99,312.41 875.97,314.22 C875.92,319.12 872.50,334.43 869.43,343.50 C866.40,352.42 859.58,367.28 856.91,370.78 C855.95,372.03 854.87,374.83 854.50,376.99 C854.03,379.81 852.73,381.91 849.90,384.48 L 845.95 388.04 L 773.89 387.77 L 701.82 387.50 L 699.91 385.14 C697.35,381.97 697.50,378.53 700.38,374.68 C701.70,372.93 703.10,370.38 703.50,369.00 C703.91,367.62 705.27,364.48 706.54,362.00 C708.98,357.23 713.49,344.17 715.00,337.50 C721.14,310.32 719.92,266.12 712.59,249.72 C711.16,246.54 710.00,243.15 710.00,242.18 C710.00,241.21 709.16,238.87 708.13,236.96 C707.11,235.06 704.95,231.02 703.33,228.00 C698.43,218.83 695.54,214.76 689.69,208.82 C683.45,202.48 671.35,193.00 669.51,193.00 C668.85,193.00 667.49,192.10 666.49,190.99 C665.49,189.88 662.51,188.34 659.88,187.56 C657.24,186.77 653.11,184.98 650.70,183.57 C648.29,182.15 645.41,181.00 644.29,181.00 C643.17,181.00 639.61,179.83 636.37,178.39 C633.14,176.96 628.03,175.40 625.00,174.92 C621.97,174.45 616.35,173.12 612.50,171.98 C608.65,170.84 602.12,169.48 598.00,168.95 C593.88,168.43 587.12,167.57 583.00,167.05 C578.56,166.48 520.94,166.07 441.88,166.04 L 308.27 166.00 L 305.63 168.07 L 303.00 170.15 L 303.00 442.15 L 305.92 445.08 L 308.85 448.00 L 488.17 448.12 C586.80,448.18 667.87,448.17 668.32,448.10 C669.54,447.89 687.62,450.95 694.64,452.56 C698.01,453.33 704.08,454.26 708.14,454.63 C712.19,454.99 719.02,456.57 723.32,458.14 C727.62,459.71 733.14,461.00 735.60,461.00 C738.57,461.00 742.04,462.00 746.00,464.00 C749.85,465.94 753.45,467.00 756.23,467.00 C758.96,467.00 762.33,467.97 765.51,469.67 C768.25,471.13 772.51,472.71 774.97,473.18 C777.42,473.64 781.02,475.07 782.97,476.35 C784.91,477.63 787.85,479.01 789.50,479.41 C791.15,479.82 794.49,481.47 796.92,483.08 C799.35,484.68 801.80,486.00 802.36,486.00 C805.42,486.00 831.38,501.91 842.50,510.59 C844.15,511.88 847.42,514.41 849.76,516.22 C866.93,529.45 886.49,549.03 895.49,562.00 C905.02,575.72 908.60,581.52 912.14,589.00 C913.31,591.47 915.04,594.62 915.99,596.00 C918.06,599.03 928.00,621.39 928.00,623.04 C928.00,623.68 929.30,628.10 930.88,632.85 C932.47,637.61 934.10,643.97 934.50,647.00 C934.90,650.03 935.63,653.27 936.13,654.21 C936.62,655.15 937.81,659.65 938.76,664.21 C940.26,671.36 940.50,678.57 940.50,716.50 C940.50,761.28 940.25,764.96 936.44,776.50 C935.71,778.70 934.82,783.59 934.46,787.38 C934.11,791.16 932.92,796.78 931.83,799.88 C930.74,802.97 929.20,808.08 928.41,811.24 C927.61,814.40 925.43,820.48 923.56,824.74 C921.69,829.01 919.82,833.85 919.42,835.50 C919.01,837.15 917.70,840.08 916.49,842.00 C915.29,843.92 913.76,847.18 913.08,849.24 C912.41,851.29 911.39,853.26 910.83,853.60 C910.27,853.95 908.57,856.99 907.06,860.37 C905.55,863.74 903.56,867.12 902.65,867.87 C901.74,868.63 901.00,869.75 901.00,870.37 C900.99,872.70 893.02,883.56 880.77,897.93 C874.39,905.42 859.82,919.00 858.17,919.00 C857.74,919.00 854.94,921.27 851.95,924.04 C848.95,926.82 845.15,929.81 843.50,930.68 C841.85,931.56 839.23,933.34 837.67,934.64 C836.12,935.94 834.04,937.00 833.06,937.00 C832.08,937.00 829.58,938.35 827.50,940.00 C825.42,941.65 822.97,943.00 822.06,943.00 C821.14,943.00 818.34,944.30 815.84,945.89 C813.34,947.48 810.21,949.10 808.89,949.50 C807.58,949.90 803.35,951.70 799.50,953.50 C786.53,959.59 781.52,961.69 777.00,962.95 C774.53,963.64 769.11,965.48 764.96,967.04 C760.81,968.60 754.96,970.17 751.96,970.54 C748.96,970.90 743.71,972.29 740.31,973.61 C736.90,974.94 731.27,976.27 727.81,976.58 C724.34,976.89 719.70,977.75 717.50,978.50 C710.12,981.00 696.61,982.89 682.50,983.40 C674.80,983.68 666.92,984.36 665.00,984.92 C663.08,985.48 656.10,986.49 649.50,987.17 Z" fill="rgb(1,93,254)"/>
<path d="M 510.83 729.38 L 504.16 732.00 L 471.83 731.75 C454.05,731.62 373.15,731.39 292.05,731.25 C198.42,731.09 144.24,730.64 143.62,730.02 C143.03,729.43 142.74,716.64 142.89,696.78 C143.11,666.20 143.23,664.39 145.09,662.50 C147.04,660.51 148.34,660.50 320.78,660.56 L 494.50 660.61 L 504.92 663.01 C513.59,665.00 516.16,666.06 520.27,669.31 C527.51,675.03 531.14,683.28 531.74,695.36 C532.19,704.43 532.17,704.56 528.16,712.50 C523.19,722.34 519.44,725.99 510.83,729.38 Z" fill="rgb(62,230,89)"/>
<path d="M 508.47 735.01 C505.27,735.72 492.33,736.00 471.53,735.80 C453.91,735.64 372.41,735.28 290.40,735.00 C164.49,734.58 141.04,734.28 139.62,733.10 C138.08,731.82 137.95,728.52 138.21,696.26 L 138.50 660.82 L 141.34 658.39 L 144.17 655.95 L 324.34 656.22 L 504.50 656.50 L 512.88 659.94 C526.92,665.71 533.70,674.19 537.16,690.30 C541.15,708.90 527.07,730.84 508.47,735.01 ZM 510.83 729.38 C519.44,725.99 523.19,722.34 528.16,712.50 C532.17,704.56 532.19,704.43 531.74,695.36 C531.14,683.28 527.51,675.03 520.27,669.31 C516.16,666.06 513.59,665.00 504.92,663.01 L 494.50 660.61 L 320.78 660.56 C148.34,660.50 147.04,660.51 145.09,662.50 C143.23,664.39 143.11,666.20 142.89,696.78 C142.74,716.64 143.03,729.43 143.62,730.02 C144.24,730.64 198.42,731.09 292.05,731.25 C373.15,731.39 454.05,731.62 471.83,731.75 L 504.16 732.00 Z" fill="rgb(115,244,157)"/>
<path d="M 646.00 989.51 C632.24,990.70 588.84,990.93 385.00,990.91 C246.05,990.89 139.55,990.49 138.31,989.99 C137.46,989.65 136.74,989.39 136.14,988.98 C132.92,986.74 132.96,979.82 133.20,929.88 L 133.22 925.83 C133.47,873.09 133.29,865.32 137.01,862.19 C137.87,861.47 138.93,861.00 140.26,860.27 C143.33,858.59 155.97,858.49 381.00,858.24 C544.38,858.05 621.78,857.63 629.00,856.87 C634.78,856.27 643.78,855.47 649.00,855.10 C654.23,854.73 659.07,854.08 659.76,853.65 C661.94,852.30 674.83,849.00 677.91,849.00 C679.53,849.00 684.22,847.65 688.34,846.00 C692.46,844.35 696.84,843.00 698.08,843.00 C699.31,843.00 702.39,841.70 704.91,840.12 C707.44,838.53 711.14,836.94 713.15,836.59 C715.16,836.24 717.40,835.22 718.14,834.34 C718.87,833.45 721.44,831.88 723.84,830.86 C726.24,829.83 729.39,828.07 730.85,826.95 C732.31,825.82 736.20,822.88 739.50,820.41 C751.45,811.44 762.26,797.04 771.31,778.00 C778.60,762.67 779.96,759.01 781.00,752.00 C781.44,748.97 782.83,742.00 784.08,736.50 C786.08,727.77 786.37,723.77 786.38,705.00 C786.39,686.69 786.06,681.80 784.13,672.00 C782.88,665.67 781.52,657.12 781.10,653.00 C779.54,637.78 768.94,608.14 761.61,598.50 C753.81,588.24 742.07,577.62 734.00,573.54 C732.08,572.56 729.60,570.97 728.50,570.01 C727.40,569.04 724.70,567.68 722.50,566.99 C720.30,566.30 716.70,564.71 714.50,563.47 C712.30,562.23 707.80,560.90 704.50,560.52 C701.20,560.14 695.80,558.75 692.50,557.44 C687.32,555.39 683.69,554.92 666.00,554.00 C649.00,553.11 625.49,552.68 604.50,552.87 C554.65,553.31 144.34,553.01 142.16,552.54 C140.47,552.16 137.71,550.30 136.04,548.39 L 133.00 544.93 L 132.89 428.22 C132.68,212.74 133.19,45.51 134.06,43.89 C135.79,40.65 140.57,40.14 176.00,39.41 C224.57,38.40 241.07,38.42 445.00,39.74 C623.09,40.90 629.03,41.04 647.06,44.55 C651.22,45.35 658.86,46.46 664.06,47.00 C677.64,48.41 687.00,50.44 721.30,59.44 C726.69,60.86 732.77,62.86 734.80,63.90 C736.84,64.93 740.75,66.45 743.50,67.26 C748.13,68.63 760.13,74.47 766.00,78.20 C767.38,79.08 769.62,80.12 771.00,80.51 C772.38,80.91 774.88,82.26 776.56,83.52 C778.25,84.79 781.17,86.54 783.06,87.42 C787.26,89.37 792.29,93.00 804.40,102.83 C811.50,108.59 836.89,134.08 837.53,136.08 C837.86,137.14 838.51,138.00 838.97,138.00 C840.48,138.00 854.24,157.35 857.11,163.50 C858.14,165.70 859.41,168.18 859.94,169.00 C862.22,172.55 868.74,187.91 869.87,192.41 C870.55,195.11 872.15,199.84 873.43,202.91 C874.70,205.98 876.29,211.65 876.96,215.50 C877.63,219.35 879.00,226.32 880.01,231.00 C883.11,245.35 884.46,270.24 883.07,287.45 C882.41,295.62 881.19,304.31 880.36,306.77 C879.52,309.22 878.04,316.49 877.05,322.91 C876.07,329.33 874.59,335.92 873.76,337.54 C872.93,339.17 871.50,343.20 870.59,346.50 C868.68,353.41 862.51,367.38 859.81,370.91 C858.79,372.23 857.28,375.65 856.45,378.51 C854.96,383.67 852.58,386.68 848.24,388.91 C846.60,389.76 826.59,390.14 774.74,390.29 C709.02,390.48 703.26,390.37 700.36,388.78 C697.52,387.23 695.00,382.86 695.00,379.50 C695.00,378.84 696.34,376.32 697.98,373.90 C699.62,371.48 700.97,368.80 700.98,367.95 C700.99,367.09 702.26,364.39 703.79,361.95 C705.33,359.50 707.11,355.16 707.76,352.30 C708.41,349.44 709.81,345.17 710.86,342.80 C714.08,335.60 717.18,306.15 716.43,290.00 C715.71,274.65 713.10,257.05 710.93,252.91 C709.90,250.93 708.43,246.66 707.67,243.41 C706.91,240.16 705.10,235.75 703.64,233.61 C702.19,231.47 701.00,229.14 701.00,228.44 C701.00,227.73 699.94,225.88 698.64,224.33 C697.34,222.77 695.58,220.14 694.73,218.48 C691.89,212.92 671.80,195.00 668.41,195.00 C667.79,195.00 665.58,193.65 663.50,192.00 C661.42,190.35 658.95,189.00 658.00,189.00 C657.06,189.00 653.63,187.70 650.39,186.11 C642.64,182.31 630.32,178.26 621.01,176.47 C616.89,175.67 610.37,174.12 606.51,173.02 C591.92,168.85 586.85,168.70 445.50,168.30 C327.23,167.96 309.24,168.10 307.50,169.37 C305.52,170.83 305.50,171.99 305.50,306.51 L 305.50 442.18 L 307.86 444.09 C310.17,445.95 314.52,446.00 491.86,446.01 C666.64,446.01 673.92,446.09 684.50,447.94 C690.55,449.00 696.85,450.31 698.50,450.85 C700.15,451.39 705.01,452.09 709.31,452.41 C714.02,452.76 719.58,453.96 723.31,455.43 C726.71,456.78 732.76,458.32 736.75,458.86 C740.92,459.42 745.48,460.75 747.48,461.99 C749.45,463.21 753.47,464.39 756.73,464.72 C760.22,465.07 764.63,466.42 767.89,468.15 C770.86,469.72 774.46,471.01 775.89,471.02 C777.33,471.03 780.75,472.37 783.50,474.00 C786.25,475.63 789.22,476.97 790.11,476.98 C791.00,476.99 793.36,478.11 795.37,479.48 C797.38,480.84 801.38,482.96 804.26,484.20 C815.60,489.07 831.43,499.30 852.61,515.47 C865.30,525.15 883.39,542.29 890.12,551.00 C900.78,564.80 908.99,576.69 909.00,578.35 C909.00,578.81 909.90,580.45 911.00,582.00 C912.09,583.54 916.32,591.48 920.38,599.65 C927.77,614.50 933.95,631.92 936.00,643.72 C936.59,647.14 937.79,651.64 938.66,653.72 C942.67,663.33 944.27,697.74 942.80,743.00 C942.24,760.33 941.69,766.05 939.94,772.50 C938.75,776.90 937.21,784.38 936.51,789.12 C935.03,799.21 931.76,809.84 923.34,832.00 C919.84,841.18 908.89,862.77 902.71,872.63 C892.26,889.32 877.22,906.84 865.41,916.07 C862.29,918.51 856.47,923.20 852.48,926.50 C844.96,932.72 841.74,934.88 834.05,938.84 C831.55,940.13 828.83,941.76 828.00,942.47 C827.17,943.17 824.84,944.28 822.81,944.93 C820.78,945.58 818.00,947.00 816.63,948.08 C815.25,949.16 812.19,950.72 809.82,951.55 C807.44,952.38 803.25,954.16 800.50,955.50 C790.39,960.45 779.37,964.91 774.66,965.96 C772.00,966.56 768.10,967.93 765.99,969.01 C763.88,970.08 758.29,971.64 753.57,972.46 C748.85,973.28 743.64,974.65 742.00,975.50 C740.35,976.35 734.75,977.69 729.54,978.47 C724.33,979.25 719.11,980.40 717.94,981.03 C714.71,982.76 698.59,984.96 689.00,984.99 C684.33,985.00 676.45,985.70 671.50,986.54 C666.55,987.39 655.08,988.72 646.00,989.51 ZM 649.50 987.17 C656.10,986.49 663.08,985.48 665.00,984.92 C666.92,984.36 674.80,983.68 682.50,983.40 C696.61,982.89 710.12,981.00 717.50,978.50 C719.70,977.75 724.34,976.89 727.81,976.58 C731.27,976.27 736.90,974.94 740.31,973.61 C743.71,972.29 748.96,970.90 751.96,970.54 C754.96,970.17 760.81,968.60 764.96,967.04 C769.11,965.48 774.53,963.64 777.00,962.95 C781.52,961.69 786.53,959.59 799.50,953.50 C803.35,951.70 807.58,949.90 808.89,949.50 C810.21,949.10 813.34,947.48 815.84,945.89 C818.34,944.30 821.14,943.00 822.06,943.00 C822.97,943.00 825.42,941.65 827.50,940.00 C829.58,938.35 832.08,937.00 833.06,937.00 C834.04,937.00 836.12,935.94 837.67,934.64 C839.23,933.34 841.85,931.56 843.50,930.68 C845.15,929.81 848.95,926.82 851.95,924.04 C854.94,921.27 857.74,919.00 858.17,919.00 C859.82,919.00 874.39,905.42 880.77,897.93 C893.02,883.56 900.99,872.70 901.00,870.37 C901.00,869.75 901.74,868.63 902.65,867.87 C903.56,867.12 905.55,863.74 907.06,860.37 C908.57,856.99 910.27,853.95 910.83,853.60 C911.39,853.26 912.41,851.29 913.08,849.24 C913.76,847.18 915.29,843.92 916.49,842.00 C917.70,840.08 919.01,837.15 919.42,835.50 C919.82,833.85 921.69,829.01 923.56,824.74 C925.43,820.48 927.61,814.40 928.41,811.24 C929.20,808.08 930.74,802.97 931.83,799.88 C932.92,796.78 934.11,791.16 934.46,787.38 C934.82,783.59 935.71,778.70 936.44,776.50 C940.25,764.96 940.50,761.28 940.50,716.50 C940.50,678.57 940.26,671.36 938.76,664.21 C937.81,659.65 936.62,655.15 936.13,654.21 C935.63,653.27 934.90,650.03 934.50,647.00 C934.10,643.97 932.47,637.61 930.88,632.85 C929.30,628.10 928.00,623.68 928.00,623.04 C928.00,621.39 918.06,599.03 915.99,596.00 C915.04,594.62 913.31,591.47 912.14,589.00 C908.60,581.52 905.02,575.72 895.49,562.00 C886.49,549.03 866.93,529.45 849.76,516.22 C847.42,514.41 844.15,511.88 842.50,510.59 C831.38,501.91 805.42,486.00 802.36,486.00 C801.80,486.00 799.35,484.68 796.92,483.08 C794.49,481.47 791.15,479.82 789.50,479.41 C787.85,479.01 784.91,477.63 782.97,476.35 C781.02,475.07 777.42,473.64 774.97,473.18 C772.51,472.71 768.25,471.13 765.51,469.67 C762.33,467.97 758.96,467.00 756.23,467.00 C753.45,467.00 749.85,465.94 746.00,464.00 C742.04,462.00 738.57,461.00 735.60,461.00 C733.14,461.00 727.62,459.71 723.32,458.14 C719.02,456.57 712.19,454.99 708.14,454.63 C704.08,454.26 698.01,453.33 694.64,452.56 C687.62,450.95 669.54,447.89 668.32,448.10 C667.87,448.17 586.80,448.18 488.17,448.12 L 308.85 448.00 L 305.92 445.08 L 303.00 442.15 L 303.00 170.15 L 305.63 168.07 L 308.27 166.00 L 441.88 166.04 C520.94,166.07 578.56,166.48 583.00,167.05 C587.12,167.57 593.88,168.43 598.00,168.95 C602.12,169.48 608.65,170.84 612.50,171.98 C616.35,173.12 621.97,174.45 625.00,174.92 C628.03,175.40 633.14,176.96 636.37,178.39 C639.61,179.83 643.17,181.00 644.29,181.00 C645.41,181.00 648.29,182.15 650.70,183.57 C653.11,184.98 657.24,186.77 659.88,187.56 C662.51,188.34 665.49,189.88 666.49,190.99 C667.49,192.10 668.85,193.00 669.51,193.00 C671.35,193.00 683.45,202.48 689.69,208.82 C695.54,214.76 698.43,218.83 703.33,228.00 C704.95,231.02 707.11,235.06 708.13,236.96 C709.16,238.87 710.00,241.21 710.00,242.18 C710.00,243.15 711.16,246.54 712.59,249.72 C719.92,266.12 721.14,310.32 715.00,337.50 C713.49,344.17 708.98,357.23 706.54,362.00 C705.27,364.48 703.91,367.62 703.50,369.00 C703.10,370.38 701.70,372.93 700.38,374.68 C697.50,378.53 697.35,381.97 699.91,385.14 L 701.82 387.50 L 773.89 387.77 L 845.95 388.04 L 849.90 384.48 C852.73,381.91 854.03,379.81 854.50,376.99 C854.87,374.83 855.95,372.03 856.91,370.78 C859.58,367.28 866.40,352.42 869.43,343.50 C872.50,334.43 875.92,319.12 875.97,314.22 C875.99,312.41 876.64,309.41 877.41,307.55 C878.19,305.69 879.61,297.26 880.56,288.83 C882.20,274.22 882.20,272.60 880.49,254.50 C879.51,244.05 878.09,233.76 877.35,231.62 C876.61,229.49 875.99,225.89 875.98,223.62 C875.96,218.91 873.31,208.61 869.57,198.70 C868.16,194.97 867.00,191.27 867.00,190.50 C867.00,188.43 852.40,159.31 848.60,153.79 C842.12,144.36 835.20,136.48 820.40,121.64 C803.78,104.99 795.24,97.23 791.17,95.10 C789.70,94.34 787.41,92.86 786.08,91.82 C784.75,90.79 781.82,89.05 779.58,87.97 C777.34,86.89 770.55,83.30 764.50,80.00 C758.45,76.69 752.15,73.33 750.50,72.52 C745.16,69.90 725.72,63.08 717.50,60.93 C713.10,59.79 703.42,57.26 696.00,55.31 C680.73,51.31 675.99,50.47 660.68,49.03 C654.73,48.47 647.24,47.34 644.03,46.51 C640.83,45.68 636.25,44.99 633.86,44.98 C631.46,44.96 627.69,44.53 625.47,44.02 C623.14,43.48 550.32,42.75 452.97,42.29 C252.48,41.35 144.90,41.64 140.19,43.14 C138.16,43.79 136.51,45.15 135.94,46.66 C135.36,48.17 135.00,144.63 135.00,295.75 L 135.00 542.38 L 137.25 545.70 C138.76,547.94 140.81,549.39 143.50,550.14 C146.38,550.95 186.85,551.17 288.00,550.94 C365.27,550.77 480.02,550.72 543.00,550.84 C670.44,551.07 685.09,551.60 696.94,556.39 C700.48,557.83 705.17,559.00 707.36,559.00 C709.93,559.00 713.22,560.06 716.65,562.00 C719.58,563.65 722.73,565.00 723.66,565.00 C724.59,565.00 727.75,566.58 730.68,568.50 C733.60,570.42 738.43,573.60 741.39,575.55 C747.95,579.86 757.36,588.91 762.85,596.19 C767.41,602.22 776.96,622.25 776.98,625.82 C776.99,627.09 777.49,629.05 778.09,630.18 C779.95,633.65 782.83,645.15 783.93,653.52 C785.49,665.40 786.89,674.02 787.98,678.50 C789.29,683.89 789.27,724.56 787.95,731.20 C787.37,734.12 786.00,740.55 784.90,745.50 C783.81,750.45 782.42,756.75 781.82,759.50 C781.22,762.25 779.92,766.08 778.93,768.00 C777.95,769.92 774.85,776.28 772.04,782.13 C763.41,800.15 750.76,815.96 738.20,824.43 C734.52,826.92 730.38,829.86 729.00,830.96 C727.62,832.06 726.04,832.97 725.48,832.98 C724.92,832.99 722.84,834.10 720.86,835.45 C718.88,836.80 715.96,838.20 714.38,838.57 C712.80,838.95 709.25,840.49 706.50,842.01 C703.75,843.52 699.79,845.06 697.71,845.43 C695.62,845.80 691.81,847.01 689.22,848.12 C686.64,849.23 681.08,850.79 676.86,851.59 C672.65,852.39 666.61,853.93 663.44,855.02 C660.28,856.11 655.75,857.00 653.38,857.00 C651.01,857.00 644.22,857.65 638.28,858.44 C629.21,859.66 589.08,859.95 385.77,860.31 L 144.04 860.73 L 140.53 863.41 C138.60,864.88 136.67,867.31 136.26,868.79 C135.84,870.28 135.50,897.08 135.50,928.34 L 135.50 985.18 L 137.87 987.10 C140.20,988.98 144.87,989.01 388.87,988.71 C576.75,988.48 640.43,988.10 649.50,987.17 Z" fill="rgb(104,158,254)"/>
<path d="M 647.50 991.91 C637.65,992.70 560.20,993.02 386.00,992.99 C155.74,992.95 138.31,992.83 135.78,991.26 C134.29,990.34 132.59,988.43 132.01,987.03 C131.30,985.30 131.04,965.22 131.23,925.31 C131.49,867.33 131.54,866.09 133.56,863.38 C134.70,861.87 136.87,859.70 138.38,858.56 L 141.15 856.50 L 368.82 856.26 C644.07,855.98 644.39,855.97 662.00,850.65 C666.67,849.24 672.97,847.77 675.99,847.38 C679.01,847.00 683.79,845.66 686.61,844.41 C689.43,843.16 693.49,841.84 695.62,841.46 C697.75,841.09 701.17,839.72 703.21,838.41 C705.24,837.10 708.72,835.62 710.93,835.13 C713.14,834.63 716.34,833.05 718.05,831.61 C719.76,830.18 722.00,829.00 723.04,829.00 C724.08,829.00 726.31,827.65 728.00,826.00 C729.69,824.35 731.45,823.00 731.91,823.00 C733.79,823.00 745.48,812.67 750.80,806.29 C759.22,796.21 764.53,787.53 770.62,773.90 C776.25,761.31 777.44,757.47 780.94,740.50 C785.24,719.66 785.51,692.09 781.62,671.88 C780.81,667.69 779.85,660.94 779.48,656.88 C778.89,650.41 775.37,635.62 771.89,625.00 C771.26,623.08 769.23,618.23 767.37,614.23 C765.52,610.23 764.00,606.72 764.00,606.42 C764.00,604.69 755.26,593.60 749.87,588.50 C743.70,582.66 733.37,575.01 731.64,575.00 C731.17,575.00 729.47,573.89 727.85,572.53 C726.23,571.17 723.02,569.54 720.71,568.92 C718.41,568.30 715.25,566.89 713.71,565.79 C712.12,564.66 708.20,563.46 704.70,563.02 C701.29,562.59 695.12,561.10 691.00,559.70 C685.11,557.71 680.50,557.01 669.50,556.45 C661.80,556.05 540.08,555.67 399.00,555.60 C145.03,555.48 142.46,555.46 138.53,553.49 C136.33,552.39 133.67,549.96 132.58,548.06 C130.62,544.66 130.60,541.95 130.60,294.94 C130.61,57.54 130.70,45.11 132.38,42.54 C135.65,37.55 137.57,37.31 180.50,36.59 C192.41,36.39 200.64,36.23 208.86,36.13 C232.56,35.83 256.26,35.93 368.10,36.41 C376.84,36.45 386.13,36.48 396.00,36.53 C585.46,37.33 636.19,38.82 662.50,44.37 C666.35,45.18 673.94,46.37 679.37,47.01 C684.79,47.65 691.11,48.98 693.42,49.96 C695.72,50.95 700.05,52.09 703.05,52.50 C706.05,52.91 711.65,54.27 715.50,55.52 C719.35,56.77 724.75,58.31 727.50,58.95 C730.25,59.59 734.30,60.94 736.50,61.96 C738.70,62.98 743.42,64.82 747.00,66.05 C750.58,67.29 755.18,69.36 757.23,70.65 C759.28,71.94 761.27,73.00 761.64,73.00 C762.02,73.00 764.39,74.30 766.91,75.89 C769.44,77.48 772.57,79.11 773.87,79.50 C775.17,79.89 778.10,81.45 780.37,82.96 C801.86,97.27 803.32,98.34 810.96,105.51 C828.82,122.26 835.22,129.02 847.28,143.89 C851.19,148.73 857.90,158.82 859.35,162.06 C860.20,163.95 861.55,166.62 862.36,168.00 C864.97,172.43 871.84,188.41 872.47,191.50 C872.81,193.15 874.18,197.20 875.51,200.50 C878.59,208.07 883.52,232.81 885.08,248.49 C886.85,266.22 885.78,297.26 883.06,307.00 C881.91,311.12 880.26,319.20 879.40,324.96 C878.54,330.71 877.00,337.03 875.99,339.02 C874.98,341.00 873.42,345.43 872.53,348.87 C871.64,352.31 868.19,360.61 864.86,367.31 C861.52,374.01 858.06,381.04 857.15,382.92 C856.24,384.80 853.77,387.72 851.66,389.42 L 847.82 392.50 L 778.16 392.80 C739.85,392.97 706.58,392.83 704.23,392.49 C701.88,392.15 698.82,390.89 697.43,389.69 C692.67,385.58 692.43,375.63 697.01,371.49 C698.10,370.50 699.00,368.91 699.00,367.95 C699.00,366.99 700.32,363.69 701.94,360.62 C703.55,357.55 705.60,352.22 706.48,348.78 C707.36,345.34 708.78,341.45 709.64,340.14 C710.54,338.77 711.57,333.87 712.06,328.63 C712.53,323.61 713.40,315.33 714.01,310.23 C714.81,303.52 714.82,297.03 714.03,286.73 C712.26,263.41 711.38,257.91 708.58,252.58 C707.16,249.87 706.00,246.49 706.00,245.06 C706.00,243.64 705.09,240.90 703.99,238.98 C702.88,237.07 701.07,233.53 699.97,231.12 C698.86,228.71 696.84,225.42 695.48,223.79 C694.12,222.17 693.00,220.26 693.00,219.54 C693.00,218.82 691.91,217.52 690.58,216.64 C689.24,215.77 687.89,214.25 687.57,213.28 C687.25,212.30 684.85,209.80 682.24,207.72 C679.63,205.65 675.54,202.38 673.16,200.47 C670.77,198.56 668.29,197.00 667.66,197.00 C667.02,196.99 664.47,195.65 662.00,194.00 C659.53,192.35 656.83,191.01 656.00,191.00 C655.17,191.00 651.80,189.71 648.50,188.14 C638.06,183.17 631.20,181.07 609.00,176.07 C583.44,170.31 573.91,169.98 436.09,170.04 C320.81,170.09 311.96,170.21 310.03,171.80 L 307.96 173.50 L 308.23 307.33 C308.49,438.31 308.54,441.19 310.43,442.58 C312.08,443.78 338.43,443.99 489.43,444.00 C592.38,444.01 670.96,444.41 677.17,444.96 C683.03,445.48 691.56,446.83 696.11,447.97 C700.66,449.10 706.89,450.28 709.94,450.58 C717.47,451.33 724.94,452.98 728.19,454.63 C729.67,455.38 734.08,456.44 737.98,457.00 C741.88,457.55 747.19,459.07 749.79,460.37 C752.38,461.67 756.99,463.04 760.03,463.41 C763.07,463.79 767.47,465.18 769.81,466.51 C772.15,467.83 775.74,469.22 777.78,469.59 C779.83,469.96 783.97,471.52 787.00,473.05 C790.03,474.58 794.08,476.56 796.00,477.45 C797.92,478.34 800.62,479.70 802.00,480.47 C803.38,481.24 806.30,482.74 808.50,483.79 C810.70,484.84 814.08,486.52 816.00,487.52 C820.89,490.06 845.58,506.79 847.04,508.55 C847.70,509.35 848.68,510.00 849.20,510.00 C850.99,510.00 878.38,534.18 886.45,542.87 C893.97,551.00 907.44,569.55 911.58,577.50 C912.73,579.70 915.99,585.63 918.83,590.68 C921.67,595.74 924.00,600.11 924.00,600.41 C924.00,600.71 925.53,604.23 927.40,608.23 C932.82,619.81 939.86,643.98 943.50,663.50 C947.71,686.06 947.35,750.21 942.90,771.00 C941.78,776.22 940.18,784.33 939.36,789.00 C935.76,809.30 925.42,836.62 911.15,863.50 C899.64,885.17 878.91,909.91 863.00,920.96 C861.08,922.30 856.80,925.67 853.50,928.45 C850.20,931.23 846.04,934.54 844.25,935.79 C836.70,941.07 800.14,959.41 793.00,961.50 C791.62,961.90 789.15,963.04 787.50,964.03 C785.85,965.02 781.76,966.54 778.41,967.40 C775.06,968.27 770.33,969.84 767.91,970.91 C765.48,971.97 760.58,973.38 757.00,974.04 C753.42,974.70 748.30,976.08 745.62,977.12 C742.93,978.15 737.76,979.48 734.12,980.06 C730.48,980.65 725.25,981.76 722.50,982.53 C712.80,985.27 701.41,987.00 693.16,987.00 C688.57,987.00 679.57,987.85 673.16,988.90 C666.75,989.94 655.20,991.30 647.50,991.91 ZM 646.00 989.51 C655.08,988.72 666.55,987.39 671.50,986.54 C676.45,985.70 684.33,985.00 689.00,984.99 C698.59,984.96 714.71,982.76 717.94,981.03 C719.11,980.40 724.33,979.25 729.54,978.47 C734.75,977.69 740.35,976.35 742.00,975.50 C743.64,974.65 748.85,973.28 753.57,972.46 C758.29,971.64 763.88,970.08 765.99,969.01 C768.10,967.93 772.00,966.56 774.66,965.96 C779.37,964.91 790.39,960.45 800.50,955.50 C803.25,954.16 807.44,952.38 809.82,951.55 C812.19,950.72 815.25,949.16 816.63,948.08 C818.00,947.00 820.78,945.58 822.81,944.93 C824.84,944.28 827.17,943.17 828.00,942.47 C828.83,941.76 831.55,940.13 834.05,938.84 C841.74,934.88 844.96,932.72 852.48,926.50 C856.47,923.20 862.29,918.51 865.41,916.07 C877.22,906.84 892.26,889.32 902.71,872.63 C908.89,862.77 919.84,841.18 923.34,832.00 C931.76,809.84 935.03,799.21 936.51,789.12 C937.21,784.38 938.75,776.90 939.94,772.50 C941.69,766.05 942.24,760.33 942.80,743.00 C944.27,697.74 942.67,663.33 938.66,653.72 C937.79,651.64 936.59,647.14 936.00,643.72 C933.95,631.92 927.77,614.50 920.38,599.65 C916.32,591.48 912.09,583.54 911.00,582.00 C909.90,580.45 909.00,578.81 909.00,578.35 C908.99,576.69 900.78,564.80 890.12,551.00 C883.39,542.29 865.30,525.15 852.61,515.47 C831.43,499.30 815.60,489.07 804.26,484.20 C801.38,482.96 797.38,480.84 795.37,479.48 C793.36,478.11 791.00,476.99 790.11,476.98 C789.22,476.97 786.25,475.63 783.50,474.00 C780.75,472.37 777.33,471.03 775.89,471.02 C774.46,471.01 770.86,469.72 767.89,468.15 C764.63,466.42 760.22,465.07 756.73,464.72 C753.47,464.39 749.45,463.21 747.48,461.99 C745.48,460.75 740.92,459.42 736.75,458.86 C732.76,458.32 726.71,456.78 723.31,455.43 C719.58,453.96 714.02,452.76 709.31,452.41 C705.01,452.09 700.15,451.39 698.50,450.85 C696.85,450.31 690.55,449.00 684.50,447.94 C673.92,446.09 666.64,446.01 491.86,446.01 C314.52,446.00 310.17,445.95 307.86,444.09 L 305.50 442.18 L 305.50 306.51 C305.50,171.99 305.52,170.83 307.50,169.37 C309.24,168.10 327.23,167.96 445.50,168.30 C586.85,168.70 591.92,168.85 606.51,173.02 C610.37,174.12 616.89,175.67 621.01,176.47 C630.32,178.26 642.64,182.31 650.39,186.11 C653.63,187.70 657.06,189.00 658.00,189.00 C658.95,189.00 661.42,190.35 663.50,192.00 C665.58,193.65 667.79,195.00 668.41,195.00 C671.80,195.00 691.89,212.92 694.73,218.48 C695.58,220.14 697.34,222.77 698.64,224.33 C699.94,225.88 701.00,227.73 701.00,228.44 C701.00,229.14 702.19,231.47 703.64,233.61 C705.10,235.75 706.91,240.16 707.67,243.41 C708.43,246.66 709.90,250.93 710.93,252.91 C713.10,257.05 715.71,274.65 716.43,290.00 C717.18,306.15 714.08,335.60 710.86,342.80 C709.81,345.17 708.41,349.44 707.76,352.30 C707.11,355.16 705.33,359.50 703.79,361.95 C702.26,364.39 700.99,367.09 700.98,367.95 C700.97,368.80 699.62,371.48 697.98,373.90 C696.34,376.32 695.00,378.84 695.00,379.50 C695.00,382.86 697.52,387.23 700.36,388.78 C703.26,390.37 709.02,390.48 774.74,390.29 C826.59,390.14 846.60,389.76 848.24,388.91 C852.58,386.68 854.96,383.67 856.45,378.51 C857.28,375.65 858.79,372.23 859.81,370.91 C862.51,367.38 868.68,353.41 870.59,346.50 C871.50,343.20 872.93,339.17 873.76,337.54 C874.59,335.92 876.07,329.33 877.05,322.91 C878.04,316.49 879.52,309.22 880.36,306.77 C881.19,304.31 882.41,295.62 883.07,287.45 C884.46,270.24 883.11,245.35 880.01,231.00 C879.00,226.32 877.63,219.35 876.96,215.50 C876.29,211.65 874.70,205.98 873.43,202.91 C872.15,199.84 870.55,195.11 869.87,192.41 C868.74,187.91 862.22,172.55 859.94,169.00 C859.41,168.18 858.14,165.70 857.11,163.50 C854.24,157.35 840.48,138.00 838.97,138.00 C838.51,138.00 837.86,137.14 837.53,136.08 C836.89,134.08 811.50,108.59 804.40,102.83 C792.29,93.00 787.26,89.37 783.06,87.42 C781.17,86.54 778.25,84.79 776.56,83.52 C774.88,82.26 772.38,80.91 771.00,80.51 C769.62,80.12 767.38,79.08 766.00,78.20 C760.13,74.47 748.13,68.63 743.50,67.26 C740.75,66.45 736.84,64.93 734.80,63.90 C732.77,62.86 726.69,60.86 721.30,59.44 C687.00,50.44 677.64,48.41 664.06,47.00 C658.86,46.46 651.22,45.35 647.06,44.55 C629.03,41.04 623.09,40.90 445.00,39.74 C241.07,38.42 224.57,38.40 176.00,39.41 C140.57,40.14 135.79,40.65 134.06,43.89 C133.19,45.51 132.68,212.74 132.89,428.22 L 133.00 544.93 L 136.04 548.39 C137.71,550.30 140.47,552.16 142.16,552.54 C144.34,553.01 554.65,553.31 604.50,552.87 C625.49,552.68 649.00,553.11 666.00,554.00 C683.69,554.92 687.32,555.39 692.50,557.44 C695.80,558.75 701.20,560.14 704.50,560.52 C707.80,560.90 712.30,562.23 714.50,563.47 C716.70,564.71 720.30,566.30 722.50,566.99 C724.70,567.68 727.40,569.04 728.50,570.01 C729.60,570.97 732.08,572.56 734.00,573.54 C742.07,577.62 753.81,588.24 761.61,598.50 C768.94,608.14 779.54,637.78 781.10,653.00 C781.52,657.12 782.88,665.67 784.13,672.00 C786.06,681.80 786.39,686.69 786.38,705.00 C786.37,723.77 786.08,727.77 784.08,736.50 C782.83,742.00 781.44,748.97 781.00,752.00 C779.96,759.01 778.60,762.67 771.31,778.00 C762.26,797.04 751.45,811.44 739.50,820.41 C736.20,822.88 732.31,825.82 730.85,826.95 C729.39,828.07 726.24,829.83 723.84,830.86 C721.44,831.88 718.87,833.45 718.14,834.34 C717.40,835.22 715.16,836.24 713.15,836.59 C711.14,836.94 707.44,838.53 704.91,840.12 C702.39,841.70 699.31,843.00 698.08,843.00 C696.84,843.00 692.46,844.35 688.34,846.00 C684.22,847.65 679.53,849.00 677.91,849.00 C674.83,849.00 661.94,852.30 659.76,853.65 C659.07,854.08 654.23,854.73 649.00,855.10 C643.78,855.47 634.78,856.27 629.00,856.87 C621.78,857.63 544.38,858.05 381.00,858.24 C155.97,858.49 143.33,858.59 140.26,860.27 C138.93,861.00 137.87,861.47 137.01,862.19 C133.29,865.32 133.47,873.09 133.22,925.83 L 133.20 929.88 C132.96,979.82 132.92,986.74 136.14,988.98 C136.74,989.39 137.46,989.65 138.31,989.99 C139.55,990.49 246.05,990.89 385.00,990.91 C588.84,990.93 632.24,990.70 646.00,989.51 ZM 510.36 739.43 C505.63,740.64 499.86,740.94 485.36,740.76 C474.99,740.63 392.91,740.29 302.96,740.01 C150.68,739.54 139.23,739.38 136.80,737.79 C132.24,734.80 131.94,731.91 132.27,694.93 C132.62,655.62 132.65,655.43 140.23,652.57 C144.11,651.11 160.93,650.99 323.50,651.26 C336.59,651.29 348.76,651.31 360.07,651.32 C498.85,651.53 509.10,651.55 516.76,656.01 C517.99,656.73 519.16,657.56 520.79,658.53 C535.92,667.55 545.32,685.07 543.64,701.14 C542.94,707.90 537.54,719.84 532.57,725.65 C527.73,731.31 517.63,737.57 510.36,739.43 ZM 508.47 735.01 C527.07,730.84 541.15,708.90 537.16,690.30 C533.70,674.19 526.92,665.71 512.88,659.94 L 504.50 656.50 L 324.34 656.22 L 144.17 655.95 L 141.34 658.39 L 138.50 660.82 L 138.21 696.26 C137.95,728.52 138.08,731.82 139.62,733.10 C141.04,734.28 164.49,734.58 290.40,735.00 C372.41,735.28 453.91,735.64 471.53,735.80 C492.33,736.00 505.27,735.72 508.47,735.01 Z" fill="rgb(178,209,253)"/>
<path d="M 0.00 512.00 L 0.00 0.00 L 512.00 0.00 L 1024.00 0.00 L 1024.00 512.00 L 1024.00 1024.00 L 512.00 1024.00 L 0.00 1024.00 L 0.00 512.00 ZM 647.50 991.91 C655.20,991.30 666.75,989.94 673.16,988.90 C679.57,987.85 688.57,987.00 693.16,987.00 C701.41,987.00 712.80,985.27 722.50,982.53 C725.25,981.76 730.48,980.65 734.12,980.06 C737.76,979.48 742.93,978.15 745.62,977.12 C748.30,976.08 753.42,974.70 757.00,974.04 C760.58,973.38 765.48,971.97 767.91,970.91 C770.33,969.84 775.06,968.27 778.41,967.40 C781.76,966.54 785.85,965.02 787.50,964.03 C789.15,963.04 791.62,961.90 793.00,961.50 C800.14,959.41 836.70,941.07 844.25,935.79 C846.04,934.54 850.20,931.23 853.50,928.45 C856.80,925.67 861.08,922.30 863.00,920.96 C878.91,909.91 899.64,885.17 911.15,863.50 C925.42,836.62 935.76,809.30 939.36,789.00 C940.18,784.33 941.78,776.22 942.90,771.00 C947.35,750.21 947.71,686.06 943.50,663.50 C939.86,643.98 932.82,619.81 927.40,608.23 C925.53,604.23 924.00,600.71 924.00,600.41 C924.00,600.11 921.67,595.74 918.83,590.68 C915.99,585.63 912.73,579.70 911.58,577.50 C907.44,569.55 893.97,551.00 886.45,542.87 C878.38,534.18 850.99,510.00 849.20,510.00 C848.68,510.00 847.70,509.35 847.04,508.55 C845.58,506.79 820.89,490.06 816.00,487.52 C814.08,486.52 810.70,484.84 808.50,483.79 C806.30,482.74 803.38,481.24 802.00,480.47 C800.62,479.70 797.92,478.34 796.00,477.45 C794.08,476.56 790.03,474.58 787.00,473.05 C783.97,471.52 779.83,469.96 777.78,469.59 C775.74,469.22 772.15,467.83 769.81,466.51 C767.47,465.18 763.07,463.79 760.03,463.41 C756.99,463.04 752.38,461.67 749.79,460.37 C747.19,459.07 741.88,457.55 737.98,457.00 C734.08,456.44 729.67,455.38 728.19,454.63 C724.94,452.98 717.47,451.33 709.94,450.58 C706.89,450.28 700.66,449.10 696.11,447.97 C691.56,446.83 683.03,445.48 677.17,444.96 C670.96,444.41 592.38,444.01 489.43,444.00 C338.43,443.99 312.08,443.78 310.43,442.58 C308.54,441.19 308.49,438.31 308.23,307.33 L 307.96 173.50 L 310.03 171.80 C311.96,170.21 320.81,170.09 436.09,170.04 C573.91,169.98 583.44,170.31 609.00,176.07 C631.20,181.07 638.06,183.17 648.50,188.14 C651.80,189.71 655.17,191.00 656.00,191.00 C656.83,191.01 659.53,192.35 662.00,194.00 C664.47,195.65 667.02,196.99 667.66,197.00 C668.29,197.00 670.77,198.56 673.16,200.47 C675.54,202.38 679.63,205.65 682.24,207.72 C684.85,209.80 687.25,212.30 687.57,213.28 C687.89,214.25 689.24,215.77 690.58,216.64 C691.91,217.52 693.00,218.82 693.00,219.54 C693.00,220.26 694.12,222.17 695.48,223.79 C696.84,225.42 698.86,228.71 699.97,231.12 C701.07,233.53 702.88,237.07 703.99,238.98 C705.09,240.90 706.00,243.64 706.00,245.06 C706.00,246.49 707.16,249.87 708.58,252.58 C711.38,257.91 712.26,263.41 714.03,286.73 C714.82,297.03 714.81,303.52 714.01,310.23 C713.40,315.33 712.53,323.61 712.06,328.63 C711.57,333.87 710.54,338.77 709.64,340.14 C708.78,341.45 707.36,345.34 706.48,348.78 C705.60,352.22 703.55,357.55 701.94,360.62 C700.32,363.69 699.00,366.99 699.00,367.95 C699.00,368.91 698.10,370.50 697.01,371.49 C692.43,375.63 692.67,385.58 697.43,389.69 C698.82,390.89 701.88,392.15 704.23,392.49 C706.58,392.83 739.85,392.97 778.16,392.80 L 847.82 392.50 L 851.66 389.42 C853.77,387.72 856.24,384.80 857.15,382.92 C858.06,381.04 861.52,374.01 864.86,367.31 C868.19,360.61 871.64,352.31 872.53,348.87 C873.42,345.43 874.98,341.00 875.99,339.02 C877.00,337.03 878.54,330.71 879.40,324.96 C880.26,319.20 881.91,311.12 883.06,307.00 C885.78,297.26 886.85,266.22 885.08,248.49 C883.52,232.81 878.59,208.07 875.51,200.50 C874.18,197.20 872.81,193.15 872.47,191.50 C871.84,188.41 864.97,172.43 862.36,168.00 C861.55,166.62 860.20,163.95 859.35,162.06 C857.90,158.82 851.19,148.73 847.28,143.89 C835.22,129.02 828.82,122.26 810.96,105.51 C803.32,98.34 801.86,97.27 780.37,82.96 C778.10,81.45 775.17,79.89 773.87,79.50 C772.57,79.11 769.44,77.48 766.91,75.89 C764.39,74.30 762.02,73.00 761.64,73.00 C761.27,73.00 759.28,71.94 757.23,70.65 C755.18,69.36 750.58,67.29 747.00,66.05 C743.42,64.82 738.70,62.98 736.50,61.96 C734.30,60.94 730.25,59.59 727.50,58.95 C724.75,58.31 719.35,56.77 715.50,55.52 C711.65,54.27 706.05,52.91 703.05,52.50 C700.05,52.09 695.72,50.95 693.42,49.96 C691.11,48.98 684.79,47.65 679.37,47.01 C673.94,46.37 666.35,45.18 662.50,44.37 C636.19,38.82 585.46,37.33 396.00,36.53 C216.17,35.77 229.41,35.76 180.50,36.59 C137.57,37.31 135.65,37.55 132.38,42.54 C130.70,45.11 130.61,57.54 130.60,294.94 C130.60,541.95 130.62,544.66 132.58,548.06 C133.67,549.96 136.33,552.39 138.53,553.49 C142.46,555.46 145.03,555.48 399.00,555.60 C540.08,555.67 661.80,556.05 669.50,556.45 C680.50,557.01 685.11,557.71 691.00,559.70 C695.12,561.10 701.29,562.59 704.70,563.02 C708.20,563.46 712.12,564.66 713.71,565.79 C715.25,566.89 718.41,568.30 720.71,568.92 C723.02,569.54 726.23,571.17 727.85,572.53 C729.47,573.89 731.17,575.00 731.64,575.00 C733.37,575.01 743.70,582.66 749.87,588.50 C755.26,593.60 764.00,604.69 764.00,606.42 C764.00,606.72 765.52,610.23 767.37,614.23 C769.23,618.23 771.26,623.08 771.89,625.00 C775.37,635.62 778.89,650.41 779.48,656.88 C779.85,660.94 780.81,667.69 781.62,671.88 C785.51,692.09 785.24,719.66 780.94,740.50 C777.44,757.47 776.25,761.31 770.62,773.90 C764.53,787.53 759.22,796.21 750.80,806.29 C745.48,812.67 733.79,823.00 731.91,823.00 C731.45,823.00 729.69,824.35 728.00,826.00 C726.31,827.65 724.08,829.00 723.04,829.00 C722.00,829.00 719.76,830.18 718.05,831.61 C716.34,833.05 713.14,834.63 710.93,835.13 C708.72,835.62 705.24,837.10 703.21,838.41 C701.17,839.72 697.75,841.09 695.62,841.46 C693.49,841.84 689.43,843.16 686.61,844.41 C683.79,845.66 679.01,847.00 675.99,847.38 C672.97,847.77 666.67,849.24 662.00,850.65 C644.39,855.97 644.07,855.98 368.82,856.26 L 141.15 856.50 L 138.38 858.56 C136.87,859.70 134.70,861.87 133.56,863.38 C131.54,866.09 131.49,867.33 131.23,925.31 C131.04,965.22 131.30,985.30 132.01,987.03 C132.59,988.43 134.29,990.34 135.78,991.26 C138.31,992.83 155.74,992.95 386.00,992.99 C560.20,993.02 637.65,992.70 647.50,991.91 ZM 510.36 739.43 C517.63,737.57 527.73,731.31 532.57,725.65 C537.54,719.84 542.94,707.90 543.64,701.14 C545.32,685.07 535.92,667.55 520.79,658.53 C508.24,651.06 523.06,651.60 323.50,651.26 C160.93,650.99 144.11,651.11 140.23,652.57 C132.65,655.43 132.62,655.62 132.27,694.93 C131.94,731.91 132.24,734.80 136.80,737.79 C139.23,739.38 150.68,739.54 302.96,740.01 C392.91,740.29 474.99,740.63 485.36,740.76 C499.86,740.94 505.63,740.64 510.36,739.43 Z" fill="rgb(254,254,254)"/>
</g>
</svg>
